<svg width="25" height="24" viewBox="0 0 25 24" fill="none" xmlns="http://www.w3.org/2000/svg">
<path d="M10.8162 4.36661H5.3638V19.6334H10.8162V4.36661ZM20.6306 4.36661H15.1782V9.81903H20.6306V4.36661ZM20.6306 14.181V19.6334H15.1782V14.181H20.6306ZM4.27332 4.36661C4.27332 4.07739 4.38821 3.80002 4.59271 3.59552C4.79722 3.39101 5.07459 3.27612 5.3638 3.27612H10.8162C11.1054 3.27612 11.3828 3.39101 11.5873 3.59552C11.7918 3.80002 11.9067 4.07739 11.9067 4.36661V19.6334C11.9067 19.9226 11.7918 20.2 11.5873 20.4045C11.3828 20.609 11.1054 20.7239 10.8162 20.7239H5.3638C5.07459 20.7239 4.79722 20.609 4.59271 20.4045C4.38821 20.2 4.27332 19.9226 4.27332 19.6334V4.36661ZM14.0877 4.36661C14.0877 4.07739 14.2026 3.80002 14.4071 3.59552C14.6116 3.39101 14.8889 3.27612 15.1782 3.27612H20.6306C20.9198 3.27612 21.1972 3.39101 21.4017 3.59552C21.6062 3.80002 21.7211 4.07739 21.7211 4.36661V9.81903C21.7211 10.1082 21.6062 10.3856 21.4017 10.5901C21.1972 10.7946 20.9198 10.9095 20.6306 10.9095H15.1782C14.8889 10.9095 14.6116 10.7946 14.4071 10.5901C14.2026 10.3856 14.0877 10.1082 14.0877 9.81903V4.36661ZM15.1782 13.0905C14.8889 13.0905 14.6116 13.2054 14.4071 13.4099C14.2026 13.6144 14.0877 13.8918 14.0877 14.181V19.6334C14.0877 19.9226 14.2026 20.2 14.4071 20.4045C14.6116 20.609 14.8889 20.7239 15.1782 20.7239H20.6306C20.9198 20.7239 21.1972 20.609 21.4017 20.4045C21.6062 20.2 21.7211 19.9226 21.7211 19.6334V14.181C21.7211 13.8918 21.6062 13.6144 21.4017 13.4099C21.1972 13.2054 20.9198 13.0905 20.6306 13.0905H15.1782Z" fill="white"/>
</svg>
