<svg width="24" height="24" viewBox="0 0 24 24" fill="none" xmlns="http://www.w3.org/2000/svg">
<path d="M9.81927 4.36661H4.36685V19.6334H9.81927V4.36661ZM19.6336 4.36661H14.1812V9.81903H19.6336V4.36661ZM19.6336 14.181V19.6334H14.1812V14.181H19.6336ZM3.27637 4.36661C3.27637 4.07739 3.39126 3.80002 3.59576 3.59552C3.80027 3.39101 4.07764 3.27612 4.36685 3.27612H9.81927C10.1085 3.27612 10.3859 3.39101 10.5904 3.59552C10.7949 3.80002 10.9098 4.07739 10.9098 4.36661V19.6334C10.9098 19.9226 10.7949 20.2 10.5904 20.4045C10.3859 20.609 10.1085 20.7239 9.81927 20.7239H4.36685C4.07764 20.7239 3.80027 20.609 3.59576 20.4045C3.39126 20.2 3.27637 19.9226 3.27637 19.6334V4.36661ZM13.0907 4.36661C13.0907 4.07739 13.2056 3.80002 13.4101 3.59552C13.6146 3.39101 13.892 3.27612 14.1812 3.27612H19.6336C19.9229 3.27612 20.2002 3.39101 20.4047 3.59552C20.6092 3.80002 20.7241 4.07739 20.7241 4.36661V9.81903C20.7241 10.1082 20.6092 10.3856 20.4047 10.5901C20.2002 10.7946 19.9229 10.9095 19.6336 10.9095H14.1812C13.892 10.9095 13.6146 10.7946 13.4101 10.5901C13.2056 10.3856 13.0907 10.1082 13.0907 9.81903V4.36661ZM14.1812 13.0905C13.892 13.0905 13.6146 13.2054 13.4101 13.4099C13.2056 13.6144 13.0907 13.8918 13.0907 14.181V19.6334C13.0907 19.9226 13.2056 20.2 13.4101 20.4045C13.6146 20.609 13.892 20.7239 14.1812 20.7239H19.6336C19.9229 20.7239 20.2002 20.609 20.4047 20.4045C20.6092 20.2 20.7241 19.9226 20.7241 19.6334V14.181C20.7241 13.8918 20.6092 13.6144 20.4047 13.4099C20.2002 13.2054 19.9229 13.0905 19.6336 13.0905H14.1812Z" fill="white"/>
</svg>
