<svg width="41" height="40" viewBox="0 0 41 40" fill="none" xmlns="http://www.w3.org/2000/svg">
<g opacity="0.2">
<mask id="path-1-inside-1_346_1036" fill="white">
<path d="M40.5498 20C40.5498 31.0457 31.5955 40 20.5498 40C9.50411 40 0.549805 31.0457 0.549805 20C0.549805 8.9543 9.50411 0 20.5498 0C31.5955 0 40.5498 8.9543 40.5498 20ZM3.14981 20C3.14981 29.6098 10.9401 37.4 20.5498 37.4C30.1596 37.4 37.9498 29.6098 37.9498 20C37.9498 10.3902 30.1596 2.6 20.5498 2.6C10.9401 2.6 3.14981 10.3902 3.14981 20Z"/>
</mask>
<path d="M40.5498 20C40.5498 31.0457 31.5955 40 20.5498 40C9.50411 40 0.549805 31.0457 0.549805 20C0.549805 8.9543 9.50411 0 20.5498 0C31.5955 0 40.5498 8.9543 40.5498 20ZM3.14981 20C3.14981 29.6098 10.9401 37.4 20.5498 37.4C30.1596 37.4 37.9498 29.6098 37.9498 20C37.9498 10.3902 30.1596 2.6 20.5498 2.6C10.9401 2.6 3.14981 10.3902 3.14981 20Z" stroke="url(#paint0_linear_346_1036)" stroke-width="32" stroke-linecap="round" mask="url(#path-1-inside-1_346_1036)"/>
</g>
<defs>
<linearGradient id="paint0_linear_346_1036" x1="35.2165" y1="4.41666" x2="24.4647" y2="40.9219" gradientUnits="userSpaceOnUse">
<stop stop-color="#0098EF"/>
<stop offset="0.968018" stop-color="#BCEBFF"/>
</linearGradient>
</defs>
</svg>
