<svg width="41" height="40" viewBox="0 0 41 40" fill="none" xmlns="http://www.w3.org/2000/svg">
<g opacity="0.2">
<mask id="path-1-inside-1_346_1020" fill="white">
<path d="M40.55 20C40.55 31.0457 31.5957 40 20.55 40C9.50435 40 0.550049 31.0457 0.550049 20C0.550049 8.9543 9.50435 0 20.55 0C31.5957 0 40.55 8.9543 40.55 20ZM3.15005 20C3.15005 29.6098 10.9403 37.4 20.55 37.4C30.1598 37.4 37.9501 29.6098 37.9501 20C37.9501 10.3902 30.1598 2.6 20.55 2.6C10.9403 2.6 3.15005 10.3902 3.15005 20Z"/>
</mask>
<path d="M40.55 20C40.55 31.0457 31.5957 40 20.55 40C9.50435 40 0.550049 31.0457 0.550049 20C0.550049 8.9543 9.50435 0 20.55 0C31.5957 0 40.55 8.9543 40.55 20ZM3.15005 20C3.15005 29.6098 10.9403 37.4 20.55 37.4C30.1598 37.4 37.9501 29.6098 37.9501 20C37.9501 10.3902 30.1598 2.6 20.55 2.6C10.9403 2.6 3.15005 10.3902 3.15005 20Z" stroke="url(#paint0_linear_346_1020)" stroke-width="32" stroke-linecap="round" mask="url(#path-1-inside-1_346_1020)"/>
</g>
<defs>
<linearGradient id="paint0_linear_346_1020" x1="35.2167" y1="4.41666" x2="24.4649" y2="40.9219" gradientUnits="userSpaceOnUse">
<stop stop-color="#0098EF"/>
<stop offset="0.968018" stop-color="#BCEBFF"/>
</linearGradient>
</defs>
</svg>
