<svg width="24" height="24" viewBox="0 0 24 24" fill="none" xmlns="http://www.w3.org/2000/svg">
<path d="M20.1012 5.05582H3.89809C3.59113 5.05582 3.29675 5.17775 3.07971 5.3948C2.86266 5.61185 2.74072 5.90623 2.74072 6.21318V17.7868C2.74072 18.0938 2.86266 18.3882 3.07971 18.6052C3.29675 18.8222 3.59113 18.9442 3.89809 18.9442H20.1012C20.4081 18.9442 20.7025 18.8222 20.9196 18.6052C21.1366 18.3882 21.2585 18.0938 21.2585 17.7868V6.21318C21.2585 5.90623 21.1366 5.61185 20.9196 5.3948C20.7025 5.17775 20.4081 5.05582 20.1012 5.05582ZM19.21 17.7868H4.8587L8.90947 13.5972L8.07617 12.7928L3.89809 17.1155V7.09278L11.0911 14.2511C11.308 14.4666 11.6013 14.5876 11.907 14.5876C12.2128 14.5876 12.5061 14.4666 12.723 14.2511L20.1012 6.91339V17.0403L15.8421 12.7812L15.0261 13.5972L19.21 17.7868ZM4.65616 6.21318H19.1637L11.907 13.4293L4.65616 6.21318Z" fill="white"/>
</svg>
