<svg width="25" height="24" viewBox="0 0 25 24" fill="none" xmlns="http://www.w3.org/2000/svg">
<path d="M20.6046 5.05582H4.4015C4.09455 5.05582 3.80017 5.17775 3.58312 5.3948C3.36608 5.61185 3.24414 5.90623 3.24414 6.21318V17.7868C3.24414 18.0938 3.36608 18.3882 3.58312 18.6052C3.80017 18.8222 4.09455 18.9442 4.4015 18.9442H20.6046C20.9116 18.9442 21.2059 18.8222 21.423 18.6052C21.64 18.3882 21.762 18.0938 21.762 17.7868V6.21318C21.762 5.90623 21.64 5.61185 21.423 5.3948C21.2059 5.17775 20.9116 5.05582 20.6046 5.05582ZM19.7134 17.7868H5.36212L9.41289 13.5972L8.57959 12.7928L4.4015 17.1155V7.09278L11.5945 14.2511C11.8114 14.4666 12.1047 14.5876 12.4105 14.5876C12.7162 14.5876 13.0096 14.4666 13.2264 14.2511L20.6046 6.91339V17.0403L16.3455 12.7812L15.5296 13.5972L19.7134 17.7868ZM5.15958 6.21318H19.6671L12.4105 13.4293L5.15958 6.21318Z" fill="white"/>
</svg>
