<svg width="25" height="24" viewBox="0 0 25 24" fill="none" xmlns="http://www.w3.org/2000/svg">
<path d="M20.1044 5.05582H3.90126C3.59431 5.05582 3.29993 5.17775 3.08288 5.3948C2.86583 5.61185 2.7439 5.90623 2.7439 6.21318V17.7868C2.7439 18.0938 2.86583 18.3882 3.08288 18.6052C3.29993 18.8222 3.59431 18.9442 3.90126 18.9442H20.1044C20.4113 18.9442 20.7057 18.8222 20.9227 18.6052C21.1398 18.3882 21.2617 18.0938 21.2617 17.7868V6.21318C21.2617 5.90623 21.1398 5.61185 20.9227 5.3948C20.7057 5.17775 20.4113 5.05582 20.1044 5.05582ZM19.2132 17.7868H4.86187L8.91265 13.5972L8.07934 12.7928L3.90126 17.1155V7.09278L11.0943 14.2511C11.3111 14.4666 11.6045 14.5876 11.9102 14.5876C12.216 14.5876 12.5093 14.4666 12.7262 14.2511L20.1044 6.91339V17.0403L15.8453 12.7812L15.0293 13.5972L19.2132 17.7868ZM4.65933 6.21318H19.1669L11.9102 13.4293L4.65933 6.21318Z" fill="white"/>
</svg>
