<svg width="25" height="24" viewBox="0 0 25 24" fill="none" xmlns="http://www.w3.org/2000/svg">
<path d="M10.3207 4.36661H4.86832V19.6334H10.3207V4.36661ZM20.1351 4.36661H14.6827V9.81903H20.1351V4.36661ZM20.1351 14.181V19.6334H14.6827V14.181H20.1351ZM3.77783 4.36661C3.77783 4.07739 3.89272 3.80002 4.09723 3.59552C4.30173 3.39101 4.5791 3.27612 4.86832 3.27612H10.3207C10.61 3.27612 10.8873 3.39101 11.0918 3.59552C11.2963 3.80002 11.4112 4.07739 11.4112 4.36661V19.6334C11.4112 19.9226 11.2963 20.2 11.0918 20.4045C10.8873 20.609 10.61 20.7239 10.3207 20.7239H4.86832C4.5791 20.7239 4.30173 20.609 4.09723 20.4045C3.89272 20.2 3.77783 19.9226 3.77783 19.6334V4.36661ZM13.5922 4.36661C13.5922 4.07739 13.7071 3.80002 13.9116 3.59552C14.1161 3.39101 14.3935 3.27612 14.6827 3.27612H20.1351C20.4243 3.27612 20.7017 3.39101 20.9062 3.59552C21.1107 3.80002 21.2256 4.07739 21.2256 4.36661V9.81903C21.2256 10.1082 21.1107 10.3856 20.9062 10.5901C20.7017 10.7946 20.4243 10.9095 20.1351 10.9095H14.6827C14.3935 10.9095 14.1161 10.7946 13.9116 10.5901C13.7071 10.3856 13.5922 10.1082 13.5922 9.81903V4.36661ZM14.6827 13.0905C14.3935 13.0905 14.1161 13.2054 13.9116 13.4099C13.7071 13.6144 13.5922 13.8918 13.5922 14.181V19.6334C13.5922 19.9226 13.7071 20.2 13.9116 20.4045C14.1161 20.609 14.3935 20.7239 14.6827 20.7239H20.1351C20.4243 20.7239 20.7017 20.609 20.9062 20.4045C21.1107 20.2 21.2256 19.9226 21.2256 19.6334V14.181C21.2256 13.8918 21.1107 13.6144 20.9062 13.4099C20.7017 13.2054 20.4243 13.0905 20.1351 13.0905H14.6827Z" fill="white"/>
</svg>
