<svg width="25" height="24" viewBox="0 0 25 24" fill="none" xmlns="http://www.w3.org/2000/svg">
<path d="M9.82123 4.36661H4.3688V19.6334H9.82123V4.36661ZM19.6356 4.36661H14.1832V9.81903H19.6356V4.36661ZM19.6356 14.181V19.6334H14.1832V14.181H19.6356ZM3.27832 4.36661C3.27832 4.07739 3.39321 3.80002 3.59772 3.59552C3.80222 3.39101 4.07959 3.27612 4.3688 3.27612H9.82123C10.1104 3.27612 10.3878 3.39101 10.5923 3.59552C10.7968 3.80002 10.9117 4.07739 10.9117 4.36661V19.6334C10.9117 19.9226 10.7968 20.2 10.5923 20.4045C10.3878 20.609 10.1104 20.7239 9.82123 20.7239H4.3688C4.07959 20.7239 3.80222 20.609 3.59772 20.4045C3.39321 20.2 3.27832 19.9226 3.27832 19.6334V4.36661ZM13.0927 4.36661C13.0927 4.07739 13.2076 3.80002 13.4121 3.59552C13.6166 3.39101 13.894 3.27612 14.1832 3.27612H19.6356C19.9248 3.27612 20.2022 3.39101 20.4067 3.59552C20.6112 3.80002 20.7261 4.07739 20.7261 4.36661V9.81903C20.7261 10.1082 20.6112 10.3856 20.4067 10.5901C20.2022 10.7946 19.9248 10.9095 19.6356 10.9095H14.1832C13.894 10.9095 13.6166 10.7946 13.4121 10.5901C13.2076 10.3856 13.0927 10.1082 13.0927 9.81903V4.36661ZM14.1832 13.0905C13.894 13.0905 13.6166 13.2054 13.4121 13.4099C13.2076 13.6144 13.0927 13.8918 13.0927 14.181V19.6334C13.0927 19.9226 13.2076 20.2 13.4121 20.4045C13.6166 20.609 13.894 20.7239 14.1832 20.7239H19.6356C19.9248 20.7239 20.2022 20.609 20.4067 20.4045C20.6112 20.2 20.7261 19.9226 20.7261 19.6334V14.181C20.7261 13.8918 20.6112 13.6144 20.4067 13.4099C20.2022 13.2054 19.9248 13.0905 19.6356 13.0905H14.1832Z" fill="white"/>
</svg>
