<svg width="25" height="24" viewBox="0 0 25 24" fill="none" xmlns="http://www.w3.org/2000/svg">
<path d="M10.8178 4.36661H5.36539V19.6334H10.8178V4.36661ZM20.6322 4.36661H15.1797V9.81903H20.6322V4.36661ZM20.6322 14.181V19.6334H15.1797V14.181H20.6322ZM4.2749 4.36661C4.2749 4.07739 4.38979 3.80002 4.5943 3.59552C4.7988 3.39101 5.07617 3.27612 5.36539 3.27612H10.8178C11.107 3.27612 11.3844 3.39101 11.5889 3.59552C11.7934 3.80002 11.9083 4.07739 11.9083 4.36661V19.6334C11.9083 19.9226 11.7934 20.2 11.5889 20.4045C11.3844 20.609 11.107 20.7239 10.8178 20.7239H5.36539C5.07617 20.7239 4.7988 20.609 4.5943 20.4045C4.38979 20.2 4.2749 19.9226 4.2749 19.6334V4.36661ZM14.0893 4.36661C14.0893 4.07739 14.2042 3.80002 14.4087 3.59552C14.6132 3.39101 14.8905 3.27612 15.1797 3.27612H20.6322C20.9214 3.27612 21.1988 3.39101 21.4033 3.59552C21.6078 3.80002 21.7227 4.07739 21.7227 4.36661V9.81903C21.7227 10.1082 21.6078 10.3856 21.4033 10.5901C21.1988 10.7946 20.9214 10.9095 20.6322 10.9095H15.1797C14.8905 10.9095 14.6132 10.7946 14.4087 10.5901C14.2042 10.3856 14.0893 10.1082 14.0893 9.81903V4.36661ZM15.1797 13.0905C14.8905 13.0905 14.6132 13.2054 14.4087 13.4099C14.2042 13.6144 14.0893 13.8918 14.0893 14.181V19.6334C14.0893 19.9226 14.2042 20.2 14.4087 20.4045C14.6132 20.609 14.8905 20.7239 15.1797 20.7239H20.6322C20.9214 20.7239 21.1988 20.609 21.4033 20.4045C21.6078 20.2 21.7227 19.9226 21.7227 19.6334V14.181C21.7227 13.8918 21.6078 13.6144 21.4033 13.4099C21.1988 13.2054 20.9214 13.0905 20.6322 13.0905H15.1797Z" fill="white"/>
</svg>
