<svg width="31" height="30" viewBox="0 0 31 30" fill="none" xmlns="http://www.w3.org/2000/svg">
<path d="M26.9089 7.00014L16.5629 1.09129C15.9111 0.725754 15.0573 0.725754 14.4003 1.09129L3.97344 7.00014C3.30102 7.38114 2.84375 8.09722 2.84375 8.86314V20.6651C2.84375 21.4311 3.31063 22.1474 3.98328 22.5304L6.73227 24.0738C8.05109 24.7135 8.41648 24.7135 9.01648 24.7135C10.9698 24.7135 11.9841 23.5507 11.9841 21.5224V9.87091C11.9844 9.70637 12.0887 9.46152 11.9244 9.46152H10.6067C10.4398 9.46152 10.1094 9.70637 10.1094 9.87068V21.5222C10.1094 22.4213 9.26188 23.316 7.71828 22.5561L4.87719 20.9377C4.77828 20.8846 4.71875 20.7778 4.71875 20.6651V8.86314C4.71875 8.75191 4.82727 8.64022 4.92758 8.58322L15.3287 2.68452C15.3797 2.65781 15.4367 2.64385 15.4945 2.64385C15.5523 2.64385 15.6093 2.65781 15.6603 2.68452L25.9641 8.58183C26.0628 8.64022 26.0471 8.74845 26.0471 8.86314V20.6651C26.0471 20.7778 26.0687 20.8874 25.9714 20.9416L15.6277 26.8438C15.5391 26.8961 15.4238 26.8961 15.3266 26.8438L12.6741 25.2863C12.5942 25.2406 12.4979 25.2242 12.421 25.2664C11.6839 25.6779 11.547 25.7326 10.8556 25.9687C10.6852 26.0271 10.434 26.1284 10.9513 26.4138L14.4195 28.434C14.7506 28.6223 15.1263 28.7215 15.5087 28.7215C15.8926 28.7221 16.2698 28.6229 16.6023 28.434L26.9091 22.5304C27.582 22.1446 27.9221 21.4311 27.9221 20.6651V8.86314C27.9219 8.09722 27.5818 7.38298 26.9089 7.00014ZM18.7173 18.795C15.9687 18.795 15.3636 18.0484 15.1618 16.7028C15.1379 16.5579 15.0132 16.3846 14.8632 16.3846H13.5202C13.3541 16.3846 13.2202 16.5831 13.2202 16.746C13.2202 18.4689 14.1718 20.5564 18.7173 20.5564C22.0074 20.5564 23.8941 19.2976 23.8941 17.0698C23.8941 14.8608 22.3784 14.2811 19.1874 13.8653C15.962 13.4455 15.6343 13.2334 15.6343 12.4894C15.6343 11.8761 15.9118 11.058 18.3001 11.058C20.4338 11.058 21.2204 11.5089 21.5441 12.9251C21.572 13.0583 21.6955 13.1538 21.8349 13.1538H23.1835C23.2665 13.1538 23.3455 13.1208 23.4036 13.0624C23.4601 12.9997 23.4896 12.921 23.4823 12.8365C23.273 10.3975 21.6277 9.26099 18.2998 9.26099C15.3392 9.26099 13.5734 10.4919 13.5734 12.5552C13.5734 14.7932 15.3305 15.4117 18.1723 15.6884C21.572 16.0165 21.8363 16.5058 21.8363 17.1641C21.8363 18.3078 20.904 18.795 18.7173 18.795Z" fill="#83CD29"/>
</svg>
