<svg width="31" height="30" viewBox="0 0 31 30" fill="none" xmlns="http://www.w3.org/2000/svg">
<path d="M21.4142 1.37251H19.6836L21.4833 3.32555V4.25532H17.7764V3.16665H19.576L17.7764 1.2136V0.282898H21.4142V1.37251ZM17.0414 1.37251H15.3108L17.1106 3.32555V4.25532H13.4035V3.16665H15.2032L13.4035 1.2136V0.282898H17.0414V1.37251ZM12.7116 1.41704H10.8441V3.12118H12.7116V4.25532H9.5166V0.282898H12.7116V1.41704Z" fill="#131313"/>
<path d="M6.97171 27.3529L5.07397 6.0686H25.9256L24.0262 27.3494L15.487 29.717L6.97171 27.3529Z" fill="#1572B6"/>
<path d="M15.5002 27.9076L22.4 25.9946L24.0233 7.8092H15.5002V27.9076Z" fill="#33A9DC"/>
<path d="M15.5 15.5203H18.9542L19.193 12.8473H15.5V10.2368H22.0459L21.9833 10.9371L21.3418 18.1306H15.5V15.5203Z" fill="white"/>
<path d="M15.5156 22.2998L15.5041 22.3031L12.5969 21.5179L12.4108 19.436H9.79077L10.1566 23.5347L15.5037 25.019L15.5159 25.0155V22.2998H15.5156Z" fill="#EBEBEB"/>
<path d="M18.7325 18.0201L18.418 21.516L15.5066 22.3019V25.0178L20.8581 23.5347L20.8975 23.0936L21.3517 18.0201H18.7325Z" fill="white"/>
<path d="M15.509 10.2368V12.8471H9.20363L9.15113 12.2604L9.0323 10.9371L8.96973 10.2368H15.509ZM15.4999 15.5206V18.131H12.6295L12.5772 17.5444L12.4582 16.2209L12.3956 15.5206H15.4999Z" fill="#EBEBEB"/>
</svg>
