<svg width="31" height="30" viewBox="0 0 31 30" fill="none" xmlns="http://www.w3.org/2000/svg">
<path fill-rule="evenodd" clip-rule="evenodd" d="M12.6486 5.39461C13.5289 5.39461 14.4092 5.4082 15.2883 5.38523C15.5215 5.37914 15.9399 5.57203 15.9211 5.08734C15.9068 4.69289 15.541 4.83562 15.3193 4.83211C14.3262 4.8164 13.3299 4.77867 12.3408 4.84078C11.637 4.88461 11.4296 4.61742 11.5179 3.97195C11.5484 3.74929 11.5191 3.51867 11.5238 3.29179C11.5547 1.78101 11.9199 1.26679 13.3852 0.894138C14.9996 0.483982 16.6517 0.497575 18.2616 0.851013C19.7089 1.16883 20.31 2.29476 20.2369 3.33633C20.1479 4.60734 20.2168 5.88937 20.2156 7.16672C20.2135 8.77289 19.3836 9.62531 17.7643 9.64757C16.4307 9.66586 15.0954 9.68039 13.7625 9.64336C12.174 9.59883 11.0086 10.9184 11.0007 12.4137C11.0007 12.5271 11.0201 12.6443 10.9976 12.7537C10.8832 13.3029 11.3403 14.1905 10.7581 14.3536C9.87215 14.6025 8.83481 14.6025 8.0534 13.812C7.78856 13.5448 7.56543 13.2455 7.44778 12.8995C6.81989 11.0562 6.72075 9.18937 7.31184 7.31718C7.68028 6.14859 8.68246 5.42179 9.92395 5.40093C10.8319 5.3857 11.7401 5.39789 12.6481 5.39789L12.6486 5.39461ZM14.2662 2.78836C14.2282 2.34234 13.9885 2.01679 13.4937 2.0032C12.9525 1.98914 12.6729 2.31633 12.6722 2.84883C12.6718 3.34242 12.9406 3.65859 13.4318 3.67289C13.9716 3.68859 14.2329 3.35414 14.2662 2.78836Z" fill="#386F9F"/>
<path fill-rule="evenodd" clip-rule="evenodd" d="M19.4431 14.431C18.4493 14.431 17.4551 14.4223 16.4614 14.438C16.2375 14.4408 15.8621 14.2992 15.8503 14.682C15.8372 15.116 16.2401 15.0031 16.4961 15.0056C17.4898 15.0181 18.4845 15.0286 19.478 15.001C19.9885 14.9869 20.1968 15.0846 20.235 15.6865C20.4078 18.4111 19.2253 18.6467 17.0445 19.1424C15.7934 19.4267 14.4521 19.276 13.2183 18.7233C12.1981 18.267 11.5721 17.6093 11.6511 16.3779C11.7293 15.1624 11.7425 13.9313 11.6489 12.717C11.5364 11.2514 12.4482 10.1735 14.2212 10.1731C15.4142 10.1728 16.6151 10.0819 17.7978 10.1906C19.4888 10.3458 20.8146 8.88002 20.8728 7.17565C20.8751 7.11916 20.8606 7.05846 20.8751 7.00596C21.0242 6.48213 20.494 5.70354 21.2032 5.43893C22.275 5.03932 23.4837 5.45932 24.0312 6.2726C24.7214 7.29658 24.8147 8.5015 24.9263 9.67807C25.047 10.9463 24.6912 12.1402 24.1585 13.2842C23.7966 14.0599 23.1882 14.4349 22.3404 14.4361C21.3748 14.4368 20.4094 14.4361 19.4436 14.4361C19.4431 14.4342 19.4431 14.4326 19.4431 14.431ZM19.1843 16.9622C19.0782 16.478 18.8597 16.1475 18.2972 16.1337C17.7122 16.1196 17.5613 16.5572 17.5643 16.9479C17.5676 17.3632 17.6834 17.8742 18.3167 17.8263C18.8431 17.786 19.0997 17.46 19.1843 16.9622Z" fill="#FFCF46"/>
<path fill-rule="evenodd" clip-rule="evenodd" d="M3.81146 26.9177C3.81146 27.5229 3.83888 28.0896 3.79856 28.6514C3.78122 28.8937 4.04841 29.3498 3.54005 29.3493C3.09192 29.3493 2.97685 28.9926 2.99114 28.5616C3.01856 27.739 2.99911 26.9147 2.99911 26.0913V24.2168C2.99911 23.0871 3.30216 22.7046 4.38263 22.4707C5.38716 22.2522 6.17653 22.5904 6.58247 23.4698C6.98841 24.3494 7.01981 25.2558 6.61364 26.1506C6.21333 27.0323 5.47599 27.3614 4.53146 27.1C4.3163 27.0415 4.09903 26.9906 3.81146 26.9177ZM3.81146 24.7033C3.81146 25.015 3.85364 25.3329 3.80278 25.6361C3.68513 26.3372 4.13278 26.5099 4.6606 26.6346C5.18255 26.7579 5.54044 26.5359 5.74974 26.0761C6.10153 25.305 6.1606 24.5097 5.89341 23.6943C5.65622 22.9697 5.10849 22.8848 4.46911 22.9748C3.83771 23.0646 3.75216 23.494 3.80724 24.0248C3.83067 24.2486 3.81146 24.4772 3.81146 24.7033ZM10.6053 26.8802C10.1729 26.9927 9.79739 27.1127 9.41302 27.1849C8.57161 27.3422 7.94864 26.8802 7.7295 26.0379C7.45763 24.9954 7.68778 23.9568 7.69482 22.9167C7.69786 22.4425 8.13661 22.6275 8.44013 22.3734C8.44013 23.4867 8.44435 24.4476 8.43872 25.4079C8.43567 25.8902 8.56036 26.2868 9.01646 26.5411C9.51989 26.8218 9.93286 26.5544 10.3711 26.3742C10.6852 26.245 10.6461 25.9814 10.6465 25.7306C10.6489 24.8231 10.6463 23.9165 10.6493 23.009C10.6498 22.7852 10.6266 22.5117 10.9571 22.5227C11.2517 22.5323 11.3799 22.7074 11.375 23.0285C11.3536 24.5301 11.3961 26.0339 11.3351 27.5334C11.289 28.6673 10.489 29.3599 9.33825 29.4108C9.16599 29.418 8.98552 29.434 8.92106 29.2202C8.82286 28.8911 9.08935 28.9533 9.26442 28.8972C10.5303 28.4946 10.6958 28.2541 10.6053 26.8802ZM15.9547 22.9837C16.2896 22.8255 16.482 22.6807 16.6936 22.6415C17.8812 22.4219 18.7913 22.5056 18.789 24.1052C18.7873 24.929 18.7894 25.7531 18.7873 26.5767C18.7868 26.8073 18.8016 27.0318 18.4578 27.0518C18.0952 27.0733 18.0155 26.8659 18.0172 26.5816C18.0214 25.7878 18.0429 24.994 18.0422 24.2004C18.0418 23.584 17.9159 23.0383 17.1319 23.0402C16.4443 23.0414 15.9572 23.5547 15.9537 24.2629C15.9498 25.0297 15.95 25.7964 15.9544 26.5631C15.9551 26.8354 15.961 27.0743 15.5672 27.0518C15.2126 27.0307 15.2562 26.7916 15.2562 26.5715C15.2539 24.5559 15.2637 22.5382 15.2466 20.5211C15.2436 20.1677 15.383 19.9483 15.6966 19.9333C16.1391 19.9129 15.9364 20.2999 15.9429 20.494C15.9718 21.284 15.9547 22.076 15.9547 22.9837ZM19.7023 24.791C19.6575 23.2172 20.404 22.3769 21.7554 22.4257C22.4337 22.4505 22.9425 22.7515 23.2709 23.3374C23.851 24.3738 23.7725 25.4107 23.1448 26.3812C22.7136 27.0478 22.0503 27.3621 21.2417 27.1905C20.4443 27.0218 19.82 26.3039 19.707 25.4672C19.677 25.2457 19.7023 25.0162 19.7023 24.791ZM22.8242 24.8278C22.7886 24.5531 22.7949 24.1701 22.6805 23.8284C22.5242 23.3597 22.2392 22.9823 21.6577 22.9565C21.0711 22.9312 20.7783 23.2741 20.5826 23.7487C20.2754 24.4938 20.2953 25.2419 20.6281 25.9736C20.8418 26.445 21.1718 26.79 21.7437 26.6943C22.3069 26.6004 22.6393 26.2312 22.7543 25.6835C22.8066 25.4353 22.7982 25.1754 22.8242 24.828V24.8278ZM24.4665 25.0375C24.4665 24.7535 24.4611 24.4699 24.4674 24.1872C24.4805 23.6423 24.3068 23.0386 25.0416 22.7601C25.883 22.4423 26.7169 22.2042 27.564 22.6961C27.8808 22.8804 27.9975 23.215 28.0008 23.5704C28.0095 24.562 27.9964 25.5541 28.0097 26.5458C28.0144 26.8917 27.9235 27.0647 27.5347 27.0553C27.1086 27.0452 27.1983 26.7546 27.2011 26.5225C27.2112 25.7304 27.2663 24.9389 27.2513 24.1479C27.2316 23.1518 26.6851 22.7456 25.7539 22.9901C25.3676 23.0918 25.1262 23.2793 25.1452 23.7574C25.1829 24.6907 25.1539 25.6272 25.1574 26.5622C25.1583 26.8331 25.1623 27.0731 24.7714 27.0504C24.4133 27.0297 24.4718 26.782 24.469 26.5671C24.4625 26.0571 24.4672 25.5468 24.4665 25.0375ZM14.2552 22.8288C14.1966 22.8982 14.1474 23.0069 14.0958 23.0079C13.1668 23.0208 13.4246 23.7143 13.4007 24.2287C13.3779 24.708 13.4007 25.1897 13.3939 25.6704C13.3868 26.148 13.4283 26.5919 14.0096 26.7187C14.1762 26.7548 14.2522 26.8509 14.2175 27.0173C14.1793 27.2011 14.0328 27.1938 13.8877 27.1919C13.2197 27.1802 12.7245 26.7079 12.7048 26.0165C12.6847 25.3101 12.7121 24.6021 12.6954 23.8964C12.6868 23.5612 12.8609 23.1335 12.3204 23.0006C12.2611 22.9863 12.24 22.8183 12.2014 22.7224C12.9223 22.4962 12.6233 21.8744 12.7222 21.4026C12.769 21.1793 12.9811 21.1181 13.1815 21.0991C13.3843 21.0799 13.3859 21.244 13.3925 21.3811C13.4192 21.9248 13.1377 22.6525 14.1387 22.6129C14.1722 22.6118 14.2114 22.7447 14.2552 22.8286V22.8288Z" fill="#386F9F"/>
</svg>
