<svg width="31" height="30" viewBox="0 0 31 30" fill="none" xmlns="http://www.w3.org/2000/svg">
<path d="M0.96875 0.234375V29.5312H30.2656V0.234375H0.96875ZM16.4654 25.1984C16.033 26.077 15.2075 26.6543 14.251 26.933C12.7812 27.2705 11.3755 27.078 10.3297 26.4504C9.62984 26.021 9.08328 25.3601 8.71227 24.5986L10.9435 23.2322C10.963 23.2404 11.0216 23.3463 11.0998 23.4832C11.3844 23.9599 11.6298 24.2974 12.1121 24.5344C12.586 24.6961 13.6264 24.7995 14.0281 23.9655C14.2735 23.5413 14.1955 22.1777 14.1955 20.6691C14.1952 18.2984 14.2063 15.9375 14.2063 13.5938H16.9505C16.9505 16.1719 16.9646 18.6136 16.9505 21.1294C16.9564 22.6716 17.0902 24.0464 16.4654 25.1984ZM27.8499 24.423C26.896 27.686 21.5776 27.792 19.4523 25.6362C19.0032 25.1287 18.7217 24.8637 18.4538 24.278C19.5833 23.6283 19.5833 23.6283 20.6823 22.9924C21.2792 23.91 21.8312 24.4146 22.8242 24.6211C24.1714 24.7856 25.5268 24.3227 25.2228 22.8919C24.9104 21.7233 22.4642 21.439 20.7995 20.1893C19.1094 19.0542 18.7133 16.2961 20.1022 14.7202C20.5651 14.1373 21.3545 13.7023 22.1827 13.4932L23.0471 13.3814C24.7067 13.3479 25.7441 13.7862 26.5055 14.6365C26.7174 14.8512 26.8904 15.0827 27.2138 15.5845C26.3298 16.148 26.3326 16.1426 25.0662 16.9624C24.7958 16.3798 24.347 16.0141 23.8726 15.8552C23.1362 15.6321 22.2076 15.8747 22.0149 16.6528C21.9481 16.8926 21.962 17.1157 22.0681 17.5118C22.3665 18.1922 23.3677 18.488 24.2659 18.9007C26.8512 19.9493 27.7243 21.0736 27.939 22.4119C28.1457 23.5641 27.8891 24.3115 27.8499 24.423Z" fill="#F0DB4F"/>
</svg>
