<svg width="40" height="40" viewBox="0 0 40 40" fill="none" xmlns="http://www.w3.org/2000/svg">
<path d="M15.2025 19.8803C14.6703 19.8803 14.2356 20.0391 13.9037 20.3563C13.5718 20.6735 13.4031 21.09 13.4031 21.6C13.4031 21.8641 13.4447 22.1056 13.5278 22.3266C13.6093 22.5475 13.7387 22.7516 13.9109 22.9369C14.0843 23.1225 14.4297 23.3741 14.9437 23.695C15.575 24.0831 15.9887 24.3981 16.1875 24.6435C16.3862 24.8888 16.4856 25.1466 16.4856 25.415C16.4856 25.7738 16.3684 26.0619 16.1253 26.2769C15.8837 26.4916 15.5603 26.6003 15.1575 26.6003C14.735 26.6003 14.3662 26.4503 14.049 26.1522C13.7328 25.8531 13.5728 25.4591 13.5678 24.9635H13.3728V26.7603H13.5681C13.629 26.5906 13.7131 26.5025 13.8206 26.5025C13.8743 26.5025 13.9965 26.5381 14.1881 26.6066C14.6531 26.7738 15.034 26.8541 15.3343 26.8541C15.8506 26.8541 16.2925 26.6713 16.66 26.3013C17.0275 25.9313 17.2131 25.4847 17.2131 24.9635C17.2131 24.5594 17.0909 24.1991 16.8515 23.8866C16.61 23.5731 16.1437 23.2069 15.4453 22.7881C14.845 22.4244 14.4543 22.13 14.2734 21.8994C14.0925 21.6688 14 21.415 14 21.1353C14 20.8325 14.1112 20.5897 14.3284 20.4078C14.5472 20.2272 14.8315 20.1366 15.1903 20.1366C15.5906 20.1366 15.9265 20.2575 16.1912 20.4981C16.4562 20.741 16.6087 21.0753 16.6537 21.5063H16.8515V19.9488H16.6687C16.6453 20.0294 16.6247 20.0794 16.6062 20.1025C16.5868 20.1256 16.5525 20.1369 16.4978 20.1369C16.4343 20.1369 16.3218 20.11 16.1609 20.0575C15.8153 19.9403 15.4968 19.8794 15.2025 19.8794V19.8803ZM21.6381 19.8803C20.9887 19.8803 20.4006 20.0341 19.8668 20.3428C19.3334 20.6506 18.9109 21.0766 18.5984 21.621C18.2884 22.1644 18.1322 22.7428 18.1322 23.3581C18.1322 24.1844 18.4018 24.9219 18.944 25.5675C19.4884 26.2135 20.1378 26.6163 20.8922 26.77C21.0656 26.8603 21.3122 27.0935 21.6359 27.4731C21.9993 27.8981 22.3072 28.2056 22.5609 28.3888C22.8085 28.5691 23.0845 28.7068 23.3775 28.7963C23.6656 28.8844 23.9781 28.9281 24.3162 28.9281C24.7253 28.9281 25.0928 28.8563 25.415 28.7085L25.3431 28.5278C25.1511 28.5964 24.9485 28.6307 24.7447 28.6291C24.4603 28.6291 24.1709 28.5353 23.8818 28.3435C23.5925 28.1528 23.2312 27.7894 22.8003 27.2535C22.5975 26.996 22.4572 26.8335 22.379 26.77C23.204 26.6075 23.884 26.206 24.414 25.5616C24.9425 24.9169 25.2075 24.1822 25.2075 23.3581C25.2075 22.3791 24.8618 21.5575 24.1747 20.8875C23.4872 20.2172 22.6415 19.8803 21.6381 19.8803ZM25.6565 19.8803L25.6675 20.0928C26.0987 20.0928 26.3412 20.2197 26.395 20.4772C26.4159 20.57 26.4256 20.741 26.4281 20.985L26.4231 25.6725C26.4193 26.0228 26.3706 26.2463 26.2753 26.3428C26.1803 26.4391 26.0178 26.5003 25.7847 26.5235L25.7737 26.736H30.0853L30.1962 25.6725H29.9987C29.9425 25.9619 29.8143 26.1694 29.6081 26.2866C29.4028 26.405 29.0378 26.4647 28.5143 26.4647H28.1053C27.6328 26.4647 27.3593 26.2916 27.2875 25.9472C27.2732 25.8736 27.2662 25.7988 27.2665 25.7238L27.2825 20.985C27.2825 20.636 27.3262 20.4016 27.4181 20.2869C27.5097 20.1722 27.6756 20.1097 27.9162 20.0928L27.905 19.8803H25.6565ZM21.7087 20.1366C22.44 20.1366 23.0393 20.4272 23.5006 21.0119C23.9631 21.5991 24.1915 22.401 24.1915 23.4166C24.1915 24.3797 23.9597 25.1513 23.4947 25.7313C23.0293 26.3122 22.4093 26.6 21.6378 26.6C20.8981 26.6 20.2987 26.3025 19.8397 25.7031C19.3797 25.105 19.1512 24.3285 19.1512 23.3716C19.1512 22.3903 19.3822 21.6041 19.8459 21.0153C20.3097 20.4297 20.9312 20.1366 21.7087 20.1366ZM31.6222 21.145C31.5172 21.145 31.4365 21.1816 31.3768 21.2525C31.3159 21.3244 31.2975 21.41 31.3181 21.516C31.339 21.6188 31.3962 21.7078 31.4878 21.7847C31.5784 21.8591 31.6772 21.8994 31.7822 21.8994C31.8276 21.9009 31.8728 21.8912 31.9136 21.8712C31.9545 21.8512 31.9898 21.8215 32.0165 21.7847C32.0712 21.7078 32.0884 21.6188 32.0678 21.516C32.0459 21.4119 31.9884 21.3188 31.9053 21.2525C31.8266 21.1842 31.7263 21.1461 31.6222 21.145ZM34.4653 21.8638C34.2872 22.555 33.8987 22.9294 33.3056 22.9894L33.3118 23.1872H34.0062L33.9928 25.5285C33.994 25.9303 34.0053 26.1963 34.0331 26.3316C34.1015 26.6566 34.3137 26.8213 34.6665 26.8213C35.1768 26.8213 35.7128 26.51 36.2718 25.8838L36.1031 25.7372C35.6981 26.1497 35.3415 26.3575 35.0281 26.3575C34.8362 26.3575 34.7178 26.2463 34.6728 26.0266C34.6601 25.9648 34.6543 25.9018 34.6556 25.8388L34.6631 23.1872H35.7225L35.7128 22.8722H34.6665V21.8641L34.4653 21.8638ZM38.5653 22.7466C37.9722 22.7466 37.4912 23.0372 37.114 23.6122C36.7418 24.1881 36.6259 24.8266 36.7734 25.5285C36.859 25.941 37.0325 26.2597 37.2947 26.4856C37.5584 26.71 37.8915 26.8213 38.2897 26.8213C38.6609 26.8213 39.1784 26.7275 39.3959 26.5369C39.6128 26.3475 39.8143 26.0388 40 25.6163L39.8522 25.46C39.5553 26.0069 38.9575 26.2828 38.5084 26.2828C37.8881 26.2828 37.5097 25.9422 37.3668 25.2625C37.3485 25.1705 37.3351 25.0775 37.3265 24.9841C38.064 24.8669 38.6218 24.6591 38.9978 24.3591C39.375 24.0591 39.7534 23.7391 39.6825 23.4031C39.6445 23.2117 39.5356 23.0417 39.3775 22.9272C39.2162 22.8088 38.7987 22.7466 38.5656 22.7466H38.5653ZM32.0825 22.771L30.8043 23.0663V23.296L31.2462 23.241C31.46 23.241 31.5856 23.3375 31.6259 23.5316C31.6393 23.5972 31.6478 23.6878 31.6503 23.8025L31.6368 25.9056C31.6318 26.195 31.6003 26.365 31.5356 26.416C31.4722 26.466 31.3 26.4916 31.0215 26.4916L31.0143 26.6906H33.0418L33.0381 26.4916C32.7575 26.4916 32.5743 26.4697 32.4937 26.426C32.4131 26.3831 32.3584 26.3038 32.3337 26.1828C32.3156 26.0963 32.3081 25.946 32.3072 25.7385L32.3134 22.771H32.0825ZM38.2409 23.1603C38.364 23.1603 38.485 23.2078 38.6047 23.3019C38.7231 23.3972 38.7953 23.5019 38.8181 23.6156C38.934 24.1735 38.4422 24.5606 37.3325 24.7753C37.3022 24.3675 37.3715 23.9978 37.55 23.6644C37.7281 23.33 37.96 23.1603 38.2406 23.1603H38.2409ZM3.59747 23.9063C3.59622 23.921 3.59622 23.926 3.59497 23.9344C3.59622 23.9688 3.59747 24.0041 3.59747 24.0381C3.59872 24.015 3.59872 24.0038 3.59872 23.9781L3.59747 23.9063Z" fill="black"/>
<path d="M14.9098 11.4562C14.1554 10.78 13.2448 11.0509 12.3426 11.8553C12.2048 11.9812 12.0716 12.1116 11.9435 12.2497C10.4029 13.8941 8.97351 16.9397 8.52913 19.265C8.70101 19.6191 8.83663 20.0694 8.92601 20.4137C8.97101 20.5834 9.01132 20.7566 9.04663 20.93C9.04663 20.93 9.03194 20.8775 8.97601 20.7112L8.93913 20.6053C8.93196 20.5854 8.92383 20.5659 8.91476 20.5469C8.81476 20.3112 8.53663 19.8144 8.41444 19.5981C8.31707 19.8844 8.22539 20.1726 8.13944 20.4625C8.49257 21.1131 8.70726 22.2275 8.70726 22.2275C8.70726 22.2275 8.68913 22.1544 8.59976 21.9028C8.52163 21.6794 8.12976 20.9872 8.03601 20.8262C7.87726 21.4169 7.81507 21.8162 7.87101 21.9128C7.98226 22.1006 8.08726 22.4253 8.17882 22.7844C8.38882 23.5937 8.53382 24.5787 8.53382 24.5787L8.54632 24.7422C8.51854 25.4158 8.53232 26.0905 8.58757 26.7625C8.65601 27.6062 8.78663 28.3287 8.95257 28.7169L9.06507 28.6544C8.82194 27.8919 8.72194 26.8906 8.76601 25.7384C8.83163 23.9759 9.23476 21.8494 9.97913 19.6337C11.2391 16.2891 12.9848 13.6047 14.5823 12.3228C13.126 13.6459 11.1544 17.9319 10.5638 19.5175C9.90351 21.2947 9.43476 22.9612 9.15288 24.5591C9.63976 23.0612 11.2148 22.4178 11.2148 22.4178C11.2148 22.4178 11.986 21.4597 12.8882 20.0912C12.3485 20.2144 11.4601 20.4269 11.1632 20.5525C10.7251 20.7381 10.6069 20.8003 10.6069 20.8003C10.6069 20.8003 12.0276 19.93 13.246 19.5359C14.9219 16.8797 16.7482 13.1066 14.9098 11.4562ZM1.34038 11.8553C0.600693 11.8578 0.00256836 12.4606 -0.000244141 13.2041V25.4147C0.00256836 26.1584 0.601943 26.76 1.34038 26.7625H8.22163C8.16999 26.1006 8.15736 25.4362 8.18382 24.7728C8.17882 24.7262 8.17507 24.6687 8.17132 24.625C8.08187 24.0375 7.96666 23.4542 7.82601 22.8769C7.73694 22.5316 7.62476 22.2166 7.55632 22.1006C7.47194 21.9553 7.48444 21.8725 7.48538 21.7819C7.48538 21.6941 7.49663 21.6025 7.51226 21.4987C7.55601 21.24 7.61226 20.9837 7.68319 20.7297L7.84194 20.7103C7.82944 20.6844 7.83226 20.6612 7.81882 20.6381L7.78944 20.3587C7.87726 20.0644 7.97007 19.7712 8.06913 19.4806L8.21413 19.4662C8.20944 19.4553 8.20694 19.4381 8.20069 19.4272L8.17038 19.1953C8.63038 16.7844 10.0601 13.7228 11.6763 11.9981C11.7251 11.9469 11.7738 11.9044 11.8216 11.8553H1.34038Z" fill="black"/>
</svg>
