<svg width="31" height="30" viewBox="0 0 31 30" fill="none" xmlns="http://www.w3.org/2000/svg">
<path d="M7.02839 27.2705L5.14331 6.12726H25.8569L23.9699 27.2672L15.4874 29.6187L7.02839 27.2705Z" fill="#E44D26"/>
<path d="M15.5 27.8213L22.3541 25.9209L23.9668 7.85626H15.5V27.8213Z" fill="#F16529"/>
<path d="M15.5001 15.698H12.0686L11.8319 13.0423H15.5001V10.4492H8.9978L9.05968 11.145L9.69718 18.2909H15.5001V15.698ZM15.5001 22.4323L15.4886 22.4353L12.6009 21.6553L12.4162 19.5874H9.81296L10.1762 23.659L15.4881 25.1337L15.5001 25.1302V22.4323Z" fill="#EBEBEB"/>
<path d="M15.4912 15.698V18.2909H18.6843L18.3834 21.6539L15.4912 22.4346V25.1323L20.8073 23.659L20.8462 23.2207L21.4556 16.3941L21.5189 15.698H20.82H15.4912ZM15.4912 10.4492V13.0423H21.7549L21.8067 12.4594L21.925 11.145L21.9871 10.4492H15.4912Z" fill="white"/>
</svg>
