<svg width="25" height="24" viewBox="0 0 25 24" fill="none" xmlns="http://www.w3.org/2000/svg">
<path d="M22.4647 2.86362H3.53127C3.16238 2.86362 2.80859 3.01017 2.54775 3.27101C2.2869 3.53186 2.14036 3.88564 2.14036 4.25454V19.7455C2.14036 20.1144 2.2869 20.4682 2.54775 20.729C2.80859 20.9899 3.16238 21.1364 3.53127 21.1364H22.4647C22.8336 21.1364 23.1874 20.9899 23.4482 20.729C23.7091 20.4682 23.8556 20.1144 23.8556 19.7455V4.25454C23.8556 3.88564 23.7091 3.53186 23.4482 3.27101C23.1874 3.01017 22.8336 2.86362 22.4647 2.86362ZM22.795 19.7455C22.795 19.8331 22.7602 19.9171 22.6983 19.9791C22.6363 20.041 22.5523 20.0758 22.4647 20.0758H3.53127C3.44367 20.0758 3.35965 20.041 3.29771 19.9791C3.23577 19.9171 3.20097 19.8331 3.20097 19.7455V4.25454C3.20097 4.16694 3.23577 4.08292 3.29771 4.02098C3.35966 3.95903 3.44367 3.92423 3.53127 3.92423H22.4647C22.5523 3.92423 22.6363 3.95903 22.6983 4.02098C22.7602 4.08292 22.795 4.16694 22.795 4.25454V19.7455Z" fill="white" stroke="white" stroke-width="0.2"/>
<path d="M18.886 18.0378H19.036V17.8878V15.9252C19.036 15.0736 18.3022 14.3491 17.2249 13.8464C16.1354 13.338 14.6409 13.0276 12.9982 13.0276C11.3555 13.0276 9.86094 13.338 8.77146 13.8464C7.69416 14.3491 6.96035 15.0736 6.96035 15.9252V17.8878V18.0378H7.11035H18.886ZM12.9982 14.1126C14.3937 14.1126 15.6503 14.3306 16.5526 14.6776C17.0042 14.8514 17.3594 15.0546 17.599 15.2725C17.8387 15.4904 17.9509 15.7112 17.9509 15.9252V16.9528H8.04539V15.9252C8.04539 15.7112 8.15765 15.4904 8.39729 15.2725C8.63697 15.0546 8.99215 14.8514 9.44378 14.6776C10.346 14.3306 11.6026 14.1126 12.9982 14.1126ZM15.0471 6.81088C14.5037 6.26747 13.7667 5.96218 12.9982 5.96218C12.2297 5.96218 11.4926 6.26747 10.9492 6.81088C10.4058 7.3543 10.1005 8.09133 10.1005 8.85983C10.1005 9.62833 10.4058 10.3654 10.9492 10.9088C11.4926 11.4522 12.2297 11.7575 12.9982 11.7575C13.7667 11.7575 14.5037 11.4522 15.0471 10.9088C15.5905 10.3654 15.8958 9.62833 15.8958 8.85983C15.8958 8.09133 15.5905 7.3543 15.0471 6.81088ZM11.7165 7.57812C12.0564 7.2382 12.5174 7.04722 12.9982 7.04722C13.4789 7.04722 13.9399 7.2382 14.2799 7.57812C14.6198 7.91805 14.8108 8.3791 14.8108 8.85983C14.8108 9.34056 14.6198 9.80161 14.2799 10.1415C13.9399 10.4815 13.4789 10.6724 12.9982 10.6724C12.5174 10.6724 12.0564 10.4815 11.7165 10.1415C11.3765 9.80161 11.1856 9.34056 11.1856 8.85983C11.1856 8.3791 11.3765 7.91805 11.7165 7.57812Z" fill="white" stroke="white" stroke-width="0.3"/>
</svg>
