<svg width="25" height="24" viewBox="0 0 25 24" fill="none" xmlns="http://www.w3.org/2000/svg">
<path d="M21.4677 2.86362H2.53432C2.16543 2.86362 1.81165 3.01017 1.5508 3.27101C1.28995 3.53186 1.14341 3.88564 1.14341 4.25454V19.7455C1.14341 20.1144 1.28995 20.4682 1.5508 20.729C1.81164 20.9899 2.16543 21.1364 2.53432 21.1364H21.4677C21.8366 21.1364 22.1904 20.9899 22.4513 20.729C22.7121 20.4682 22.8587 20.1144 22.8587 19.7455V4.25454C22.8587 3.88564 22.7121 3.53186 22.4513 3.27101C22.1904 3.01017 21.8366 2.86362 21.4677 2.86362ZM21.7981 19.7455C21.7981 19.8331 21.7633 19.9171 21.7013 19.9791C21.6394 20.041 21.5554 20.0758 21.4677 20.0758H2.53432C2.44672 20.0758 2.36271 20.041 2.30076 19.9791C2.23882 19.9171 2.20402 19.8331 2.20402 19.7455V4.25454C2.20402 4.16694 2.23882 4.08292 2.30076 4.02098C2.36271 3.95903 2.44672 3.92423 2.53432 3.92423H21.4677C21.5553 3.92423 21.6394 3.95903 21.7013 4.02098C21.7633 4.08292 21.7981 4.16694 21.7981 4.25454V19.7455Z" fill="white" stroke="white" stroke-width="0.2"/>
<path d="M17.8889 18.0378H18.0389V17.8878V15.9252C18.0389 15.0736 17.3051 14.3491 16.2278 13.8464C15.1383 13.338 13.6438 13.0276 12.0011 13.0276C10.3584 13.0276 8.86387 13.338 7.77439 13.8464C6.69709 14.3491 5.96328 15.0736 5.96328 15.9252V17.8878V18.0378H6.11328H17.8889ZM12.0011 14.1126C13.3966 14.1126 14.6533 14.3306 15.5555 14.6776C16.0071 14.8514 16.3623 15.0546 16.602 15.2725C16.8416 15.4904 16.9539 15.7112 16.9539 15.9252V16.9528H7.04832V15.9252C7.04832 15.7112 7.16058 15.4904 7.40022 15.2725C7.6399 15.0546 7.99508 14.8514 8.4467 14.6776C9.34895 14.3306 10.6056 14.1126 12.0011 14.1126ZM14.05 6.81088C13.5066 6.26747 12.7696 5.96218 12.0011 5.96218C11.2326 5.96218 10.4956 6.26747 9.95215 6.81088C9.40874 7.3543 9.10345 8.09133 9.10345 8.85983C9.10345 9.62833 9.40874 10.3654 9.95215 10.9088C10.4956 11.4522 11.2326 11.7575 12.0011 11.7575C12.7696 11.7575 13.5066 11.4522 14.05 10.9088C14.5935 10.3654 14.8987 9.62833 14.8987 8.85983C14.8987 8.09133 14.5935 7.3543 14.05 6.81088ZM10.7194 7.57812C11.0593 7.2382 11.5204 7.04722 12.0011 7.04722C12.4818 7.04722 12.9429 7.2382 13.2828 7.57812C13.6227 7.91805 13.8137 8.3791 13.8137 8.85983C13.8137 9.34056 13.6227 9.80161 13.2828 10.1415C12.9429 10.4815 12.4818 10.6724 12.0011 10.6724C11.5204 10.6724 11.0593 10.4815 10.7194 10.1415C10.3795 9.80161 10.1885 9.34056 10.1885 8.85983C10.1885 8.3791 10.3795 7.91805 10.7194 7.57812Z" fill="white" stroke="white" stroke-width="0.3"/>
</svg>
