<svg width="25" height="24" viewBox="0 0 25 24" fill="none" xmlns="http://www.w3.org/2000/svg">
<path d="M21.968 2.86362H3.03457C2.66567 2.86362 2.31189 3.01017 2.05104 3.27101C1.79019 3.53186 1.64365 3.88564 1.64365 4.25454V19.7455C1.64365 20.1144 1.79019 20.4682 2.05104 20.729C2.31189 20.9899 2.66567 21.1364 3.03457 21.1364H21.968C22.3369 21.1364 22.6907 20.9899 22.9515 20.729C23.2124 20.4682 23.3589 20.1144 23.3589 19.7455V4.25454C23.3589 3.88564 23.2124 3.53186 22.9515 3.27101C22.6907 3.01017 22.3369 2.86362 21.968 2.86362ZM22.2983 19.7455C22.2983 19.8331 22.2635 19.9171 22.2016 19.9791C22.1396 20.041 22.0556 20.0758 21.968 20.0758H3.03457C2.94696 20.0758 2.86295 20.041 2.80101 19.9791C2.73906 19.9171 2.70426 19.8331 2.70426 19.7455V4.25454C2.70426 4.16694 2.73906 4.08292 2.80101 4.02098C2.86295 3.95903 2.94697 3.92423 3.03457 3.92423H21.968C22.0556 3.92423 22.1396 3.95903 22.2016 4.02098C22.2635 4.08292 22.2983 4.16694 22.2983 4.25454V19.7455Z" fill="white" stroke="white" stroke-width="0.2"/>
<path d="M18.3894 18.0378H18.5394V17.8878V15.9252C18.5394 15.0736 17.8056 14.3491 16.7283 13.8464C15.6388 13.338 14.1443 13.0276 12.5016 13.0276C10.8589 13.0276 9.36436 13.338 8.27488 13.8464C7.19758 14.3491 6.46377 15.0736 6.46377 15.9252V17.8878V18.0378H6.61377H18.3894ZM12.5016 14.1126C13.8971 14.1126 15.1537 14.3306 16.056 14.6776C16.5076 14.8514 16.8628 15.0546 17.1025 15.2725C17.3421 15.4904 17.4544 15.7112 17.4544 15.9252V16.9528H7.54881V15.9252C7.54881 15.7112 7.66107 15.4904 7.90071 15.2725C8.14039 15.0546 8.49557 14.8514 8.94719 14.6776C9.84944 14.3306 11.106 14.1126 12.5016 14.1126ZM14.5505 6.81088C14.0071 6.26747 13.2701 5.96218 12.5016 5.96218C11.7331 5.96218 10.9961 6.26747 10.4526 6.81088C9.90923 7.3543 9.60394 8.09133 9.60394 8.85983C9.60394 9.62833 9.90923 10.3654 10.4526 10.9088C10.9961 11.4522 11.7331 11.7575 12.5016 11.7575C13.2701 11.7575 14.0071 11.4522 14.5505 10.9088C15.0939 10.3654 15.3992 9.62833 15.3992 8.85983C15.3992 8.09133 15.0939 7.3543 14.5505 6.81088ZM11.2199 7.57812C11.5598 7.2382 12.0209 7.04722 12.5016 7.04722C12.9823 7.04722 13.4434 7.2382 13.7833 7.57812C14.1232 7.91805 14.3142 8.3791 14.3142 8.85983C14.3142 9.34056 14.1232 9.80161 13.7833 10.1415C13.4434 10.4815 12.9823 10.6724 12.5016 10.6724C12.0209 10.6724 11.5598 10.4815 11.2199 10.1415C10.88 9.80161 10.689 9.34056 10.689 8.85983C10.689 8.3791 10.88 7.91805 11.2199 7.57812Z" fill="white" stroke="white" stroke-width="0.3"/>
</svg>
