<svg width="159" height="37" viewBox="0 0 159 37" fill="none" xmlns="http://www.w3.org/2000/svg">
<path d="M18.2855 1.16046C8.59054 1.16046 0.731445 9.01955 0.731445 18.7145C0.731445 28.4095 8.59054 36.2685 18.2855 36.2685C27.9804 36.2685 35.8395 28.4095 35.8395 18.7145C35.8395 9.01955 27.9804 1.16046 18.2855 1.16046ZM22.4436 13.291H19.805C19.4923 13.291 19.1449 13.7025 19.1449 14.2492V16.1545H22.4454L21.9462 18.8718H19.1449V27.0289H16.0309V18.8718H13.2058V16.1545H16.0309V14.5564C16.0309 12.2634 17.6217 10.4001 19.805 10.4001H22.4436V13.291Z" fill="white"/>
<path d="M140.189 1.16046C130.494 1.16046 122.635 9.01955 122.635 18.7145C122.635 28.4095 130.494 36.2685 140.189 36.2685C149.884 36.2685 157.743 28.4095 157.743 18.7145C157.743 9.01955 149.884 1.16046 140.189 1.16046ZM147.329 15.5401C147.337 15.6901 147.338 15.84 147.338 15.9863C147.338 20.5577 143.862 25.8257 137.503 25.8257C135.623 25.8288 133.783 25.2891 132.204 24.2715C132.472 24.3044 132.748 24.3172 133.028 24.3172C134.648 24.3172 136.139 23.7668 137.322 22.8379C136.601 22.8237 135.902 22.585 135.323 22.1549C134.744 21.7249 134.314 21.125 134.092 20.4388C134.61 20.5373 135.144 20.5166 135.652 20.3785C134.87 20.2202 134.166 19.7962 133.66 19.1783C133.155 18.5605 132.878 17.7867 132.878 16.9884V16.9463C133.345 17.2041 133.878 17.3614 134.445 17.3797C133.712 16.8913 133.192 16.1411 132.994 15.2826C132.795 14.424 132.931 13.5219 133.376 12.7608C134.244 13.8286 135.327 14.7022 136.555 15.3249C137.782 15.9477 139.127 16.3057 140.501 16.3758C140.327 15.634 140.402 14.8552 140.715 14.1605C141.029 13.4659 141.563 12.8942 142.235 12.5345C142.907 12.1748 143.679 12.0471 144.431 12.1714C145.183 12.2956 145.873 12.6648 146.393 13.2216C147.167 13.0685 147.909 12.7846 148.587 12.3822C148.329 13.1834 147.789 13.8637 147.068 14.2967C147.753 14.2142 148.423 14.0299 149.054 13.75C148.59 14.4447 148.006 15.0509 147.329 15.5401Z" fill="white"/>
<path d="M84.7228 18.7145C84.7228 20.1694 84.1448 21.5647 83.1161 22.5934C82.0873 23.6222 80.692 24.2001 79.2372 24.2001C77.7823 24.2001 76.387 23.6222 75.3582 22.5934C74.3295 21.5647 73.7515 20.1694 73.7515 18.7145C73.7515 18.4018 73.7844 18.0965 73.8411 17.8002H71.923V25.1089C71.923 25.6173 72.3344 26.0287 72.8427 26.0287H85.6334C85.877 26.0282 86.1105 25.9311 86.2826 25.7587C86.4547 25.5862 86.5513 25.3525 86.5513 25.1089V17.8002H84.6332C84.6899 18.0965 84.7228 18.4018 84.7228 18.7145ZM79.2372 22.3716C79.7175 22.3715 80.1932 22.2767 80.6369 22.0928C81.0807 21.9089 81.4839 21.6393 81.8235 21.2995C82.1631 20.9598 82.4324 20.5565 82.6161 20.1126C82.7999 19.6687 82.8944 19.1931 82.8942 18.7127C82.8941 18.2323 82.7994 17.7567 82.6154 17.3129C82.4315 16.8691 82.162 16.4659 81.8222 16.1263C81.4824 15.7867 81.0791 15.5174 80.6353 15.3337C80.1914 15.15 79.7157 15.0555 79.2353 15.0556C78.2652 15.0558 77.3348 15.4415 76.649 16.1276C75.9632 16.8138 75.578 17.7443 75.5782 18.7145C75.5785 19.6847 75.9641 20.615 76.6503 21.3008C77.3365 21.9867 78.267 22.3718 79.2372 22.3716ZM83.6257 14.8746H85.8181C85.9637 14.8746 86.1035 14.8168 86.2066 14.714C86.3098 14.6112 86.368 14.4716 86.3685 14.326V12.1336C86.3685 11.9876 86.3105 11.8476 86.2073 11.7444C86.1041 11.6412 85.9641 11.5832 85.8181 11.5832H83.6257C83.4797 11.5832 83.3397 11.6412 83.2365 11.7444C83.1333 11.8476 83.0753 11.9876 83.0753 12.1336V14.326C83.0771 14.6277 83.324 14.8746 83.6257 14.8746ZM79.2372 1.16046C74.5815 1.16046 70.1166 3.0099 66.8246 6.30192C63.5325 9.59394 61.6831 14.0589 61.6831 18.7145C61.6831 23.3701 63.5325 27.8351 66.8246 31.1271C70.1166 34.4191 74.5815 36.2685 79.2372 36.2685C81.5424 36.2685 83.825 35.8145 85.9548 34.9323C88.0845 34.0502 90.0197 32.7571 91.6497 31.1271C93.2798 29.497 94.5728 27.5619 95.455 25.4321C96.3371 23.3024 96.7912 21.0197 96.7912 18.7145C96.7912 16.4093 96.3371 14.1266 95.455 11.9969C94.5728 9.86711 93.2798 7.93196 91.6497 6.30192C90.0197 4.67188 88.0845 3.37886 85.9548 2.49668C83.825 1.61451 81.5424 1.16046 79.2372 1.16046ZM88.3799 25.8257C88.3799 26.943 87.4656 27.8572 86.3484 27.8572H72.1259C71.0087 27.8572 70.0944 26.943 70.0944 25.8257V11.6033C70.0944 10.486 71.0087 9.57177 72.1259 9.57177H86.3484C87.4656 9.57177 88.3799 10.486 88.3799 11.6033V25.8257Z" fill="white"/>
</svg>
