<svg width="159" height="38" viewBox="0 0 159 38" fill="none" xmlns="http://www.w3.org/2000/svg">
<path d="M18.2855 1.33142C8.59054 1.33142 0.731445 9.19051 0.731445 18.8855C0.731445 28.5804 8.59054 36.4395 18.2855 36.4395C27.9804 36.4395 35.8395 28.5804 35.8395 18.8855C35.8395 9.19051 27.9804 1.33142 18.2855 1.33142ZM22.4436 13.462H19.805C19.4923 13.462 19.1449 13.8734 19.1449 14.4202V16.3255H22.4454L21.9462 19.0427H19.1449V27.1999H16.0309V19.0427H13.2058V16.3255H16.0309V14.7273C16.0309 12.4344 17.6217 10.5711 19.805 10.5711H22.4436V13.462Z" fill="white"/>
<path d="M140.189 1.33142C130.494 1.33142 122.635 9.19051 122.635 18.8855C122.635 28.5804 130.494 36.4395 140.189 36.4395C149.884 36.4395 157.743 28.5804 157.743 18.8855C157.743 9.19051 149.884 1.33142 140.189 1.33142ZM147.329 15.7111C147.336 15.861 147.338 16.011 147.338 16.1573C147.338 20.7286 143.862 25.9967 137.502 25.9967C135.623 25.9998 133.783 25.4601 132.203 24.4424C132.472 24.4753 132.748 24.4881 133.028 24.4881C134.648 24.4881 136.138 23.9377 137.321 23.0088C136.6 22.9947 135.902 22.7559 135.323 22.3259C134.744 21.8959 134.314 21.296 134.092 20.6098C134.61 20.7082 135.143 20.6876 135.652 20.5494C134.869 20.3912 134.166 19.9672 133.66 19.3493C133.155 18.7314 132.878 17.9577 132.878 17.1593V17.1173C133.344 17.3751 133.878 17.5323 134.445 17.5506C133.711 17.0623 133.192 16.3121 132.993 15.4535C132.794 14.595 132.931 13.6929 133.375 12.9317C134.244 13.9996 135.327 14.8732 136.554 15.4959C137.782 16.1186 139.127 16.4767 140.501 16.5468C140.326 15.8049 140.402 15.0261 140.715 14.3315C141.029 13.6368 141.563 13.0652 142.235 12.7055C142.907 12.3457 143.679 12.2181 144.431 12.3423C145.183 12.4666 145.872 12.8358 146.393 13.3925C147.167 13.2394 147.909 12.9556 148.587 12.5532C148.329 13.3544 147.789 14.0347 147.068 14.4677C147.753 14.3851 148.422 14.2009 149.053 13.921C148.59 14.6156 148.006 15.2219 147.329 15.7111Z" fill="white"/>
<path d="M84.7228 18.8855C84.7228 20.3403 84.1448 21.7356 83.1161 22.7644C82.0873 23.7932 80.692 24.3711 79.2372 24.3711C77.7823 24.3711 76.387 23.7932 75.3582 22.7644C74.3295 21.7356 73.7515 20.3403 73.7515 18.8855C73.7515 18.5728 73.7844 18.2674 73.8411 17.9712H71.923V25.2799C71.923 25.7882 72.3344 26.1996 72.8427 26.1996H85.6334C85.877 26.1992 86.1105 26.102 86.2826 25.9296C86.4547 25.7572 86.5513 25.5235 86.5513 25.2799V17.9712H84.6332C84.6899 18.2674 84.7228 18.5728 84.7228 18.8855ZM79.2372 22.5426C79.7175 22.5424 80.1932 22.4477 80.6369 22.2638C81.0807 22.0798 81.4839 21.8103 81.8235 21.4705C82.1631 21.1307 82.4324 20.7274 82.6161 20.2836C82.7999 19.8397 82.8944 19.364 82.8942 18.8836C82.8941 18.4033 82.7994 17.9276 82.6154 17.4838C82.4315 17.0401 82.162 16.6369 81.8222 16.2973C81.4824 15.9577 81.0791 15.6884 80.6353 15.5046C80.1914 15.3209 79.7157 15.2264 79.2353 15.2265C78.2652 15.2268 77.3348 15.6124 76.649 16.2986C75.9632 16.9848 75.578 17.9153 75.5782 18.8855C75.5785 19.8556 75.9641 20.786 76.6503 21.4718C77.3365 22.1576 78.267 22.5428 79.2372 22.5426ZM83.6257 15.0455H85.8181C85.9637 15.0455 86.1035 14.9878 86.2066 14.885C86.3098 14.7821 86.368 14.6426 86.3685 14.497V12.3045C86.3685 12.1586 86.3105 12.0186 86.2073 11.9153C86.1041 11.8121 85.9641 11.7541 85.8181 11.7541H83.6257C83.4797 11.7541 83.3397 11.8121 83.2365 11.9153C83.1333 12.0186 83.0753 12.1586 83.0753 12.3045V14.497C83.0771 14.7987 83.324 15.0455 83.6257 15.0455ZM79.2372 1.33142C74.5815 1.33142 70.1166 3.18086 66.8246 6.47288C63.5325 9.7649 61.6831 14.2298 61.6831 18.8855C61.6831 23.5411 63.5325 28.006 66.8246 31.298C70.1166 34.5901 74.5815 36.4395 79.2372 36.4395C81.5424 36.4395 83.825 35.9855 85.9548 35.1033C88.0845 34.2211 90.0197 32.9281 91.6497 31.298C93.2798 29.668 94.5728 27.7329 95.455 25.6031C96.3371 23.4734 96.7912 21.1907 96.7912 18.8855C96.7912 16.5802 96.3371 14.2976 95.455 12.1678C94.5728 10.0381 93.2798 8.10292 91.6497 6.47288C90.0197 4.84284 88.0845 3.54982 85.9548 2.66764C83.825 1.78547 81.5424 1.33142 79.2372 1.33142ZM88.3799 25.9967C88.3799 27.1139 87.4656 28.0282 86.3484 28.0282H72.1259C71.0087 28.0282 70.0944 27.1139 70.0944 25.9967V11.7742C70.0944 10.657 71.0087 9.74273 72.1259 9.74273H86.3484C87.4656 9.74273 88.3799 10.657 88.3799 11.7742V25.9967Z" fill="white"/>
</svg>
