<svg width="159" height="38" viewBox="0 0 159 38" fill="none" xmlns="http://www.w3.org/2000/svg">
<path d="M18.2855 1.63287C8.59054 1.63287 0.731445 9.49197 0.731445 19.1869C0.731445 28.8819 8.59054 36.741 18.2855 36.741C27.9804 36.741 35.8395 28.8819 35.8395 19.1869C35.8395 9.49197 27.9804 1.63287 18.2855 1.63287ZM22.4436 13.7634H19.805C19.4923 13.7634 19.1449 14.1749 19.1449 14.7216V16.627H22.4454L21.9462 19.3442H19.1449V27.5013H16.0309V19.3442H13.2058V16.627H16.0309V15.0288C16.0309 12.7358 17.6217 10.8725 19.805 10.8725H22.4436V13.7634Z" fill="white"/>
<path d="M140.189 1.63287C130.494 1.63287 122.635 9.49197 122.635 19.1869C122.635 28.8819 130.494 36.741 140.189 36.741C149.884 36.741 157.743 28.8819 157.743 19.1869C157.743 9.49197 149.884 1.63287 140.189 1.63287ZM147.329 16.0126C147.336 16.1625 147.338 16.3124 147.338 16.4587C147.338 21.0301 143.862 26.2981 137.502 26.2981C135.623 26.3013 133.783 25.7615 132.203 24.7439C132.472 24.7768 132.748 24.7896 133.028 24.7896C134.648 24.7896 136.138 24.2392 137.321 23.3103C136.6 23.2961 135.902 23.0574 135.323 22.6274C134.744 22.1973 134.314 21.5974 134.092 20.9112C134.61 21.0097 135.143 20.9891 135.652 20.8509C134.869 20.6927 134.166 20.2686 133.66 19.6508C133.155 19.0329 132.878 18.2591 132.878 17.4608V17.4187C133.344 17.6765 133.878 17.8338 134.445 17.8521C133.711 17.3637 133.192 16.6135 132.993 15.755C132.794 14.8964 132.931 13.9943 133.375 13.2332C134.244 14.301 135.327 15.1746 136.554 15.7974C137.782 16.4201 139.127 16.7781 140.501 16.8482C140.326 16.1064 140.402 15.3276 140.715 14.6329C141.029 13.9383 141.563 13.3666 142.235 13.0069C142.907 12.6472 143.679 12.5195 144.431 12.6438C145.183 12.768 145.872 13.1372 146.393 13.694C147.167 13.5409 147.909 13.257 148.587 12.8547C148.329 13.6558 147.789 14.3361 147.068 14.7691C147.753 14.6866 148.422 14.5023 149.053 14.2224C148.59 14.9171 148.006 15.5233 147.329 16.0126Z" fill="white"/>
<path d="M84.7228 19.1869C84.7228 20.6418 84.1448 22.0371 83.1161 23.0658C82.0873 24.0946 80.692 24.6726 79.2372 24.6726C77.7823 24.6726 76.387 24.0946 75.3582 23.0658C74.3295 22.0371 73.7515 20.6418 73.7515 19.1869C73.7515 18.8742 73.7844 18.5689 73.8411 18.2726H71.923V25.5813C71.923 26.0897 72.3344 26.5011 72.8427 26.5011H85.6334C85.877 26.5006 86.1105 26.4035 86.2826 26.2311C86.4547 26.0586 86.5513 25.825 86.5513 25.5813V18.2726H84.6332C84.6899 18.5689 84.7228 18.8742 84.7228 19.1869ZM79.2372 22.844C79.7175 22.8439 80.1932 22.7492 80.6369 22.5652C81.0807 22.3813 81.4839 22.1117 81.8235 21.772C82.1631 21.4322 82.4324 21.0289 82.6161 20.585C82.7999 20.1412 82.8944 19.6655 82.8942 19.1851C82.8941 18.7047 82.7994 18.2291 82.6154 17.7853C82.4315 17.3415 82.162 16.9383 81.8222 16.5988C81.4824 16.2592 81.0791 15.9898 80.6353 15.8061C80.1914 15.6224 79.7157 15.5279 79.2353 15.528C78.2652 15.5282 77.3348 15.9139 76.649 16.6C75.9632 17.2862 75.578 18.2168 75.5782 19.1869C75.5785 20.1571 75.9641 21.0874 76.6503 21.7733C77.3365 22.4591 78.267 22.8443 79.2372 22.844ZM83.6257 15.347H85.8181C85.9637 15.347 86.1035 15.2892 86.2066 15.1864C86.3098 15.0836 86.368 14.9441 86.3685 14.7984V12.606C86.3685 12.46 86.3105 12.32 86.2073 12.2168C86.1041 12.1136 85.9641 12.0556 85.8181 12.0556H83.6257C83.4797 12.0556 83.3397 12.1136 83.2365 12.2168C83.1333 12.32 83.0753 12.46 83.0753 12.606V14.7984C83.0771 15.1001 83.324 15.347 83.6257 15.347ZM79.2372 1.63287C74.5815 1.63287 70.1166 3.48231 66.8246 6.77433C63.5325 10.0664 61.6831 14.5313 61.6831 19.1869C61.6831 23.8425 63.5325 28.3075 66.8246 31.5995C70.1166 34.8915 74.5815 36.741 79.2372 36.741C81.5424 36.741 83.825 36.2869 85.9548 35.4047C88.0845 34.5226 90.0197 33.2295 91.6497 31.5995C93.2798 29.9695 94.5728 28.0343 95.455 25.9046C96.3371 23.7748 96.7912 21.4921 96.7912 19.1869C96.7912 16.8817 96.3371 14.599 95.455 12.4693C94.5728 10.3395 93.2798 8.40438 91.6497 6.77433C90.0197 5.14429 88.0845 3.85127 85.9548 2.9691C83.825 2.08692 81.5424 1.63287 79.2372 1.63287ZM88.3799 26.2981C88.3799 27.4154 87.4656 28.3296 86.3484 28.3296H72.1259C71.0087 28.3296 70.0944 27.4154 70.0944 26.2981V12.0757C70.0944 10.9585 71.0087 10.0442 72.1259 10.0442H86.3484C87.4656 10.0442 88.3799 10.9585 88.3799 12.0757V26.2981Z" fill="white"/>
</svg>
