<svg width="31" height="30" viewBox="0 0 31 30" fill="none" xmlns="http://www.w3.org/2000/svg">
<path d="M0.96875 14.9789V29.6273H30.2656V0.330444H0.96875V14.9789ZM24.5773 13.807C25.279 13.9698 25.9168 14.3368 26.4102 14.8617C26.6818 15.1445 26.9179 15.4593 27.1133 15.7992C27.1133 15.8367 25.8477 16.6922 25.0766 17.1703C25.0484 17.189 24.9359 17.0672 24.8117 16.882C24.671 16.6391 24.4709 16.4358 24.2304 16.2912C23.9898 16.1465 23.7165 16.0651 23.4359 16.0547C22.5477 15.9937 21.9758 16.4601 21.9805 17.2265C21.9731 17.4174 22.0168 17.6067 22.107 17.775C22.3016 18.1804 22.6648 18.4218 23.8039 18.914C25.9016 19.8164 26.7992 20.4117 27.357 21.2578C27.9805 22.1953 28.1187 23.7094 27.6969 24.8297C27.2281 26.0484 26.0797 26.8758 24.4555 27.15C23.7136 27.2349 22.9641 27.2271 22.2242 27.1265C21.095 26.9434 20.0534 26.4057 19.25 25.5914C18.9805 25.2937 18.4555 24.5179 18.4883 24.4617C18.5738 24.3982 18.6639 24.341 18.7578 24.2906L19.8359 23.6719L20.6773 23.1843L20.8531 23.4445C21.1498 23.8689 21.5273 24.2305 21.9641 24.5086C22.9016 25.0008 24.1812 24.9328 24.8141 24.3633C25.0265 24.1546 25.1591 23.878 25.1886 23.5816C25.2182 23.2853 25.1429 22.9879 24.9758 22.7414C24.7414 22.4156 24.2727 22.1414 22.9625 21.5695C21.4508 20.9179 20.7992 20.5148 20.2039 19.8726C19.8323 19.4489 19.5579 18.9489 19.4 18.4078C19.2822 17.7896 19.2648 17.1565 19.3484 16.5328C19.6602 15.0726 20.7547 14.0531 22.3531 13.7508C23.0934 13.6592 23.8432 13.6797 24.5773 13.8117V13.807ZM17.7008 15.0351V16.2351H13.8969V27.0703H11.1992V16.2328H7.38594V15.0609C7.3757 14.6575 7.38665 14.2538 7.41875 13.8515C7.43281 13.8328 9.7625 13.8234 12.575 13.8281H17.6867L17.7008 15.0351Z" fill="#007ACC"/>
</svg>
